<?xml version="1.0" encoding="utf-8"?>
<!-- Generator: Adobe Illustrator 27.9.0, SVG Export Plug-In . SVG Version: 6.00 Build 0)  -->
<svg version="1.1" id="Calque_1" xmlns="http://www.w3.org/2000/svg" xmlns:xlink="http://www.w3.org/1999/xlink" x="0px" y="0px"
	 viewBox="0 0 600 400" style="enable-background:new 0 0 600 400;" xml:space="preserve">
<style type="text/css">
	.st0{fill:#1125A9;}
</style>
<g>
	<path class="st0" d="M74.32,232.19v39.13c0,0,27.76-1.73,41.97-33.04s21.43-70.74,40.07-70.74c0,0,10.73-2.17,20,32.9
		c9.66,36.51,28.41,71.31,59.43,71.31V233.2c0,0-9.61,1.41-22.61-42.03c-9.18-30.67-22.03-61.46-56.82-61.46
		s-45.29,26.19-56.6,52.86S90.27,218.39,74.32,232.19z"/>
	<path class="st0" d="M245.35,233.2c0,0,11.31-5.22,11.31-21.16s0-82.33,0-82.33h37.4v91.02c0,0,1.74,42.03-48.7,51.02V233.2z"/>
	<path class="st0" d="M303.72,232.19v39.57c0,0,27.76-2.16,41.97-33.47c14.2-31.31,21.43-70.74,40.07-70.74c0,0,10.73-2.17,20,32.9
		c9.66,36.51,28.41,71.31,59.43,71.31V233.2c0,0-9.61,1.41-22.61-42.03c-9.18-30.67-22.03-61.46-56.82-61.46
		s-45.29,26.19-56.6,52.86C317.85,209.24,319.67,218.39,303.72,232.19z"/>
	<path class="st0" d="M474.64,233.2c0,0,11.31-5.22,11.31-21.16s0-82.33,0-82.33h37.4v91.02c0,0,1.74,42.03-48.7,51.02V233.2z"/>
</g>
</svg>
